<svg width="662" height="700" viewBox="0 0 662 700" fill="none" xmlns="http://www.w3.org/2000/svg">
<g clip-path="url(#clip0)">
<path d="M444.7 80.9888L370.723 7.0669C366.816 3.16315 360.482 3.16315 356.576 7.0669L282.599 80.9888C278.692 84.8925 278.692 91.2218 282.599 95.1255L356.576 169.047C360.482 172.951 366.816 172.951 370.723 169.047L444.7 95.1255C448.607 91.2218 448.607 84.8925 444.7 80.9888Z" fill="white"/>
<path d="M654.918 604.874L580.941 530.952C577.034 527.048 570.7 527.048 566.794 530.952L492.817 604.874C488.91 608.778 488.91 615.107 492.817 619.011L566.794 692.933C570.7 696.836 577.034 696.836 580.941 692.933L654.918 619.011C658.824 615.107 658.824 608.778 654.918 604.874Z" fill="white"/>
<path d="M151.884 198.358C153.765 196.434 156.343 195.349 159.034 195.349H306.928C315.826 195.349 320.292 206.098 314.015 212.404L183.902 343.108C180.082 346.945 180.01 353.125 183.739 357.05L314.949 495.163C321 501.533 316.485 512.051 307.699 512.051H159.034C156.343 512.051 153.765 510.966 151.884 509.042L6.83538 360.691C3.03566 356.805 3.03567 350.595 6.83539 346.709L151.884 198.358Z" fill="white"/>
<path d="M405.705 667.393C403.823 669.317 401.246 670.402 398.555 670.402H250.661C241.763 670.402 237.296 659.653 243.574 653.347L373.687 522.643C377.506 518.806 377.578 512.625 373.849 508.7L242.639 370.587C236.588 364.218 241.103 353.7 249.889 353.7H398.555C401.246 353.7 403.823 354.785 405.705 356.709L550.753 505.06C554.553 508.946 554.553 515.156 550.753 519.042L405.705 667.393Z" fill="white"/>
</g>
<defs>
<clipPath id="clip0">
<rect width="662" height="700" rx="10" fill="white"/>
</clipPath>
</defs>
</svg>
